<svg width="17" height="21" viewBox="0 0 17 21" fill="none" xmlns="http://www.w3.org/2000/svg"><path d="M0.780969 20.3C0.574712 20.3 0.376872 20.2182 0.230839 20.0726C0.0848054 19.9269 0.00249869 19.7293 0.00196915 19.523V5.77004C0.00131058 5.66723 0.0209594 5.56529 0.0597883 5.47009C0.0986172 5.37489 0.155862 5.28829 0.228238 5.21526C0.300614 5.14224 0.386698 5.08422 0.481549 5.04454C0.5764 5.00486 0.678153 4.9843 0.780969 4.98404H3.16697C3.32212 3.69357 3.94475 2.50469 4.91713 1.64221C5.8895 0.779738 7.14421 0.303467 8.44397 0.303467C9.74373 0.303467 10.9984 0.779738 11.9708 1.64221C12.9432 2.50469 13.5658 3.69357 13.721 4.98404H16.102C16.2053 4.98364 16.3077 5.0037 16.4032 5.04306C16.4988 5.08242 16.5856 5.14031 16.6586 5.21337C16.7317 5.28644 16.7896 5.37324 16.8289 5.46878C16.8683 5.56432 16.8884 5.66671 16.888 5.77004V19.523C16.8874 19.6257 16.8667 19.7272 16.8269 19.8218C16.7871 19.9165 16.729 20.0023 16.656 20.0745C16.583 20.1466 16.4965 20.2037 16.4015 20.2424C16.3064 20.2811 16.2046 20.3007 16.102 20.3H0.780969ZM4.74397 4.98404H12.144C11.9968 4.10917 11.5443 3.31475 10.867 2.74183C10.1896 2.16891 9.33114 1.85454 8.44397 1.85454C7.5568 1.85454 6.69833 2.16891 6.02097 2.74183C5.3436 3.31475 4.89116 4.10917 4.74397 4.98404Z" fill="#C92027"></path><path d="M12.634 8.65607V6.78107H14.381V8.65607C14.381 9.00107 13.99 9.28107 13.508 9.28107C13.026 9.28107 12.634 9.00107 12.634 8.65607ZM2.50195 8.65607V6.78107H4.24895V8.65607C4.24895 9.00107 3.85795 9.28107 3.37495 9.28107C2.89195 9.28107 2.50195 9.00107 2.50195 8.65607Z" fill="white"></path></svg>