<svg width="42" height="49" viewBox="0 0 42 49" fill="none" xmlns="http://www.w3.org/2000/svg"><path d="M41.3197 41.4248C41.3197 41.4248 35.9921 32.2684 35.0365 30.6262C36.1238 30.2945 37.282 30.0016 37.7633 29.1707C38.5653 27.7861 37.1377 25.5148 37.5125 24.0307C37.8987 22.5033 40.1783 21.1816 40.1783 19.6291C40.1783 18.1164 37.8215 16.3493 37.4351 14.8309C37.0576 13.3471 38.481 11.0733 37.6764 9.69037C36.8717 8.30734 34.1917 8.42097 33.0884 7.35938C31.9533 6.26691 31.9568 3.59399 30.5877 2.86188C29.2129 2.12704 26.9787 3.61215 25.4523 3.26036C23.9434 2.9126 22.5952 0.640625 21.0191 0.640625C19.4195 0.640625 16.8754 3.21782 16.4764 3.31056C14.9508 3.66521 12.7137 2.18372 11.3404 2.92168C9.97259 3.65626 9.98102 6.32944 8.84795 7.42372C7.74654 8.48726 5.06635 8.37856 4.26419 9.76314C3.46216 11.1475 4.88981 13.4183 4.51506 14.9031C4.13927 16.3917 1.78026 17.9001 1.78026 19.6217C1.78026 21.1744 4.06559 22.4919 4.45409 24.0185C4.8317 25.5023 3.40832 27.7759 4.21295 29.1593C4.651 29.9123 5.64488 30.2214 6.63747 30.5186C6.7533 30.5532 6.97239 30.6828 6.824 30.899C6.14494 32.0711 0.679365 41.5039 0.679365 41.5039C0.244558 42.2542 0.597644 42.8973 1.46376 42.9338L5.70326 43.1106C6.56937 43.147 7.65587 43.7764 8.11817 44.5097L10.3804 48.0994C10.8427 48.8327 11.5763 48.819 12.0109 48.0688C12.0109 48.0688 18.3407 37.1408 18.3433 37.1377C18.4703 36.9893 18.5979 37.0198 18.659 37.0717C19.3516 37.6614 20.317 38.2496 21.1228 38.2496C21.913 38.2496 22.6448 37.6959 23.3686 37.0783C23.4275 37.0281 23.5708 36.9252 23.6756 37.1387C23.6773 37.1421 30 48.0103 30 48.0103C30.4359 48.7596 31.1696 48.7723 31.6304 48.0381L33.8863 44.4441C34.3473 43.7103 35.4327 43.0784 36.2988 43.0407L40.5379 42.856C41.4036 42.8179 41.7555 42.1739 41.3197 41.4248ZM28.0254 31.5948C23.338 34.3218 17.7116 34.0296 13.4141 31.3189C7.11703 27.2854 5.04508 18.9416 8.83057 12.4079C12.6593 5.7989 21.0756 3.46687 27.7442 7.09878C27.7792 7.11785 27.8138 7.13757 27.8486 7.15702C27.898 7.18439 27.9473 7.21215 27.9965 7.24017C30.0537 8.42629 31.8377 10.1477 33.1152 12.3434C37.0194 19.0544 34.7362 27.6906 28.0254 31.5948Z" fill="#C92027"></path><path d="M26.9534 9.21614C26.934 9.20485 26.9142 9.19434 26.8948 9.18319C23.3325 7.12149 18.7922 6.97076 14.987 9.18461C9.34023 12.4698 7.41875 19.7363 10.7039 25.383C11.7064 27.1061 13.0801 28.4816 14.6649 29.4688C14.7997 29.5541 14.936 29.6381 15.0753 29.7187C20.7282 32.9937 27.9909 31.0591 31.2657 25.4065C34.5404 19.7536 32.6063 12.4911 26.9534 9.21614ZM28.3676 18.4572L26.3882 20.3865C25.7752 20.9839 25.392 22.1633 25.5369 23.0071L26.0042 25.7313C26.1489 26.5751 25.6474 26.9395 24.8896 26.5411L22.4431 25.2548C21.6853 24.8565 20.4453 24.8565 19.6875 25.2548L17.2411 26.5411C16.4833 26.9395 15.9817 26.5751 16.1264 25.7313L16.5937 23.0071C16.7384 22.1633 16.3553 20.9839 15.7422 20.3865L13.763 18.4572C13.1498 17.8597 13.3416 17.2701 14.1887 17.1468L16.9239 16.7494C17.7711 16.6263 18.7743 15.8974 19.1532 15.1297L20.3764 12.6513C20.7553 11.8836 21.3754 11.8836 21.7542 12.6513L22.9775 15.1297C23.3564 15.8974 24.3595 16.6263 25.2068 16.7494L27.942 17.1468C28.789 17.2701 28.9806 17.8597 28.3676 18.4572Z" fill="#C92027"></path></svg>