<svg width="25" height="24" viewBox="0 0 25 24" fill="none" xmlns="http://www.w3.org/2000/svg"><path fill-rule="evenodd" clip-rule="evenodd" d="M9.86066 22.17C10.5207 22.54 11.3907 22.75 12.3007 22.75C13.2107 22.75 14.0807 22.54 14.7407 22.16C15.1007 21.96 15.2307 21.5 15.0307 21.14C14.8307 20.78 14.3707 20.65 14.0107 20.85C13.7482 20.9978 13.4139 21.101 13.0508 21.1596V12.991L21.0358 8.36572C21.1161 8.63829 21.1606 8.90804 21.1606 9.15997V12.82C21.1606 13.23 21.5006 13.57 21.9106 13.57C22.3206 13.57 22.6606 13.23 22.6606 12.82V9.15997C22.6606 7.49997 21.5206 5.57001 20.0706 4.77001L14.7307 1.80999C13.3607 1.04999 11.2207 1.04999 9.86066 1.80999L4.52066 4.77001C3.07066 5.58001 1.93066 7.49997 1.93066 9.15997V14.82C1.93066 16.48 3.07066 18.41 4.52066 19.21L9.86066 22.17ZM20.3561 7.01894L12.3006 11.6796L4.25189 7.02183C4.54363 6.62759 4.89279 6.29481 5.26065 6.09002L10.6006 3.13C11.5106 2.62 13.1007 2.62 14.0107 3.13L19.3506 6.09002C19.7152 6.29127 20.0638 6.62372 20.3561 7.01894ZM3.57364 8.36918L11.5508 12.9856V21.157C11.1926 21.098 10.8622 20.9956 10.6006 20.85L5.26065 17.89C4.30065 17.36 3.45065 15.92 3.45065 14.82V9.15997C3.45065 8.90874 3.49447 8.6403 3.57364 8.36918ZM19.5008 22.1498C17.3208 22.1498 15.5508 20.3798 15.5508 18.1998C15.5508 16.0198 17.3208 14.2498 19.5008 14.2498C21.6808 14.2498 23.4508 16.0198 23.4508 18.1998C23.4508 19.0209 23.1997 19.7838 22.7701 20.4159C22.7911 20.4327 22.8113 20.4508 22.8307 20.4702L23.8307 21.4702C24.1207 21.7602 24.1207 22.2402 23.8307 22.5302C23.6807 22.6802 23.4907 22.7502 23.3007 22.7502C23.1107 22.7502 22.9207 22.6802 22.7707 22.5302L21.7707 21.5302C21.7513 21.5108 21.7332 21.4905 21.7164 21.4695C21.0844 21.8988 20.3216 22.1498 19.5008 22.1498ZM19.5008 15.7498C18.1508 15.7498 17.0508 16.8498 17.0508 18.1998C17.0508 19.5498 18.1508 20.6498 19.5008 20.6498C20.8508 20.6498 21.9508 19.5498 21.9508 18.1998C21.9508 16.8498 20.8508 15.7498 19.5008 15.7498Z" fill="#292D32"></path></svg>