<svg width="24" height="24" viewBox="0 0 24 24" fill="none" xmlns="http://www.w3.org/2000/svg"><g clip-path="url(#clip0_2942_313007)"><path d="M4.47234 0.121397C5.29404 -0.00818096 6.1297 -0.00895688 6.95993 0.00966509L6.88854 0.0756179C5.80226 0.787132 4.90142 1.76401 4.25043 2.88521C2.94534 5.12993 2.46971 7.78434 2.57756 10.3573C2.68463 12.4522 3.18743 14.5589 4.25354 16.3799C4.432 16.7058 4.72917 16.9937 4.73383 17.3894C4.76719 18.2382 4.34742 19.0382 3.77945 19.645C3.81669 19.6838 3.85316 19.7226 3.89041 19.7614C4.42191 20.3418 4.9891 20.8872 5.52914 21.4599C6.29652 22.3273 7.17098 23.0955 7.92284 23.9785C6.67206 23.9971 5.40655 24.0553 4.17051 23.8217C2.6148 23.5199 1.23367 22.4414 0.574144 20.9997C0.174547 20.1664 0.0550561 19.2345 0.0240194 18.3213C0.0232435 14.1049 0.0232435 9.8894 0.0240194 5.67385C0.0410896 4.26479 0.414305 2.79055 1.40593 1.74539C2.19115 0.860069 3.30304 0.284339 4.47234 0.121397Z" fill="#0068FF"></path><path d="M15.8645 7.86328C16.1973 7.86328 16.5302 7.86328 16.8639 7.86328C16.8584 9.81316 16.8584 11.7638 16.8639 13.7137C16.538 13.6679 15.9956 13.8766 15.873 13.4429C15.8528 11.5838 15.8715 9.72315 15.8645 7.86328Z" fill="#0068FF"></path><path d="M5.6818 7.93251C7.23053 7.93096 8.77771 7.92087 10.3257 7.93173C10.3148 8.23511 10.2977 8.56565 10.0944 8.81084C9.03609 10.1283 8.00024 11.4629 6.94267 12.7804C8.06697 12.7874 9.19127 12.7828 10.3156 12.7828C10.2946 13.0458 10.387 13.3523 10.2163 13.5804C10.1092 13.7278 9.9152 13.7146 9.75458 13.7162C8.34785 13.7084 6.94112 13.7232 5.53516 13.7084C5.53904 13.4112 5.54214 13.0823 5.75008 12.8456C6.79602 11.5335 7.85437 10.2308 8.89565 8.91559C7.82566 8.91714 6.7549 8.90861 5.68491 8.92025C5.67792 8.59126 5.68025 8.2615 5.6818 7.93251Z" fill="#0068FF"></path><path d="M19.343 9.22359C20.4572 8.97452 21.6661 9.70621 21.971 10.8033C22.3535 11.9447 21.6552 13.3018 20.5014 13.6494C19.5214 13.9947 18.3482 13.5439 17.84 12.6407C17.4412 11.9734 17.4171 11.0997 17.7795 10.4131C18.0868 9.80707 18.6803 9.36403 19.343 9.22359ZM19.3243 10.2121C18.6446 10.4519 18.2784 11.279 18.5438 11.947C18.7634 12.5786 19.5028 12.9651 20.1453 12.7711C20.8785 12.5957 21.3216 11.7368 21.0616 11.033C20.8444 10.3362 20.0025 9.93432 19.3243 10.2121Z" fill="#0068FF"></path><path d="M11.0877 10.0363C11.6239 9.37208 12.5627 9.04464 13.3899 9.2813C13.663 9.35035 13.9105 9.48691 14.1495 9.63201C14.1472 9.55907 14.1417 9.41398 14.1394 9.34104C14.4521 9.33949 14.764 9.34027 15.0767 9.33872C15.0752 10.7974 15.0736 12.2562 15.0775 13.7157C14.8478 13.7094 14.6143 13.7366 14.3885 13.69C14.2302 13.6256 14.1813 13.4526 14.1185 13.3114C13.2556 13.9818 11.9001 13.8297 11.1832 13.0135C10.4189 12.2228 10.3793 10.8758 11.0877 10.0363ZM12.3509 10.2318C11.6324 10.4847 11.284 11.4104 11.6479 12.0777C11.9583 12.7279 12.832 13.001 13.4566 12.6426C14.0362 12.3384 14.3039 11.5834 14.0548 10.9798C13.8135 10.3234 12.9996 9.95557 12.3509 10.2318Z" fill="#0068FF"></path><path d="M6.88825 0.0754911C7.06205 0.0258325 7.24362 0.0103142 7.42363 0.00488281C10.5265 0.0165215 13.6294 0.00333098 16.7323 0.00876239C17.5617 0.0188493 18.3959 -0.0370166 19.2191 0.0894576C20.3589 0.17636 21.4561 0.65898 22.3041 1.4217C23.3687 2.43893 23.9367 3.90386 23.9545 5.36491C23.9553 9.47804 23.953 13.5943 23.9568 17.7058C23.946 17.7299 23.925 17.7796 23.9142 17.8044C22.8085 19.0412 21.3218 19.8784 19.7677 20.42C17.6735 21.1338 15.4303 21.3635 13.229 21.1959C11.0278 21.0066 8.80942 20.4316 6.94256 19.215C5.98819 19.6394 4.93527 19.8474 3.89011 19.7612C3.85287 19.7224 3.8164 19.6837 3.77916 19.6449C4.34713 19.0381 4.7669 18.2381 4.73353 17.3893C4.72888 16.9936 4.4317 16.7057 4.25324 16.3798C3.18713 14.5587 2.68434 12.4521 2.57726 10.3571C2.46941 7.78421 2.94505 5.12981 4.25014 2.88508C4.90113 1.76388 5.80197 0.787006 6.88825 0.0754911ZM15.864 7.86336C15.871 9.72322 15.8524 11.5839 15.8726 13.443C15.9952 13.8767 16.5375 13.668 16.8634 13.7138C16.858 11.7639 16.858 9.81323 16.8634 7.86336C16.5298 7.86336 16.1969 7.86336 15.864 7.86336ZM5.68093 7.93241C5.67937 8.2614 5.67705 8.59116 5.68403 8.92015C6.75402 8.90851 7.82478 8.91705 8.89477 8.9155C7.85349 10.2307 6.79514 11.5334 5.74921 12.8455C5.54126 13.0822 5.53816 13.4112 5.53428 13.7083C6.94024 13.7231 8.34697 13.7083 9.75371 13.7161C9.91432 13.7145 10.1083 13.7277 10.2154 13.5803C10.3861 13.3522 10.2937 13.0457 10.3147 12.7827C9.19039 12.7827 8.06609 12.7873 6.94179 12.7803C7.99936 11.4628 9.03521 10.1283 10.0936 8.81075C10.2968 8.56556 10.3139 8.23502 10.3248 7.93164C8.77683 7.92077 7.22965 7.93086 5.68093 7.93241ZM19.3409 9.22354C18.6783 9.36398 18.0847 9.80702 17.7774 10.413C17.4151 11.0997 17.4391 11.9734 17.838 12.6407C18.3462 13.5438 19.5194 13.9946 20.4994 13.6494C21.6531 13.3017 22.3515 11.9447 21.9689 10.8033C21.664 9.70615 20.4551 8.97447 19.3409 9.22354ZM11.0867 10.0359C10.3783 10.8755 10.4179 12.2224 11.1822 13.0131C11.8991 13.8294 13.2546 13.9815 14.1175 13.3111C14.1803 13.4523 14.2292 13.6253 14.3875 13.6897C14.6133 13.7363 14.8468 13.7091 15.0765 13.7153C15.0726 12.2558 15.0742 10.7971 15.0757 9.33837C14.763 9.33992 14.4511 9.33915 14.1384 9.3407C14.1407 9.41363 14.1462 9.55873 14.1485 9.63167C13.9095 9.48657 13.662 9.35001 13.3889 9.28095C12.5617 9.0443 11.6229 9.37173 11.0867 10.0359Z" fill="white"></path><path d="M12.3487 10.2314C12.9974 9.95516 13.8113 10.3229 14.0526 10.9794C14.3017 11.583 14.034 12.338 13.4544 12.6422C12.8298 13.0006 11.9561 12.7275 11.6457 12.0773C11.2818 11.41 11.6302 10.4843 12.3487 10.2314Z" fill="white"></path><path d="M19.3205 10.2123C19.9987 9.9345 20.8405 10.3364 21.0578 11.0332C21.3177 11.737 20.8747 12.5959 20.1414 12.7713C19.499 12.9652 18.7595 12.5788 18.54 11.9472C18.2746 11.2792 18.6408 10.452 19.3205 10.2123Z" fill="white"></path><path d="M23.9147 17.8045L23.976 17.7378C24.0078 18.9505 23.8767 20.2161 23.2815 21.2954C22.5894 22.5617 21.334 23.5021 19.9218 23.8031C19.1296 23.9668 18.3172 24.0033 17.5103 23.9932C15.0281 23.994 12.546 23.9932 10.0638 23.994C9.34997 23.9824 8.63457 24.0157 7.92306 23.9785C7.1712 23.0955 6.29674 22.3273 5.52936 21.4599C4.98932 20.8872 4.42213 20.3418 3.89062 19.7614C4.93578 19.8475 5.9887 19.6396 6.94308 19.2151C8.80993 20.4318 11.0283 21.0067 13.2295 21.196C15.4308 21.3636 17.674 21.134 19.7682 20.4201C21.3223 19.8785 22.809 19.0413 23.9147 17.8045Z" fill="#005BE0"></path></g><defs><clipPath id="clip0_2942_313007"><rect width="24" height="24" rx="12" fill="white"></rect></clipPath></defs></svg>