<svg width="17" height="19" viewBox="0 0 17 19" fill="none" xmlns="http://www.w3.org/2000/svg"><path d="M13.35 0.806049C13.2609 0.652538 13.1331 0.525046 12.9794 0.436268C12.8257 0.347491 12.6515 0.300525 12.474 0.300049H8.70996V4.75205H15.633L13.35 0.806049Z" fill="#C92027"></path><path d="M7.65586 0.300049H3.85586C3.67808 0.300351 3.5035 0.347343 3.34959 0.43632C3.19568 0.525297 3.06784 0.653138 2.97886 0.807049L0.703857 4.75205H7.65386V0.300049H7.65586Z" fill="#C92027"></path><path d="M0.326904 5.80707V17.0591C0.327434 17.3879 0.458386 17.7032 0.691032 17.9357C0.923679 18.1681 1.23903 18.2988 1.56791 18.2991H14.7619C15.0908 18.2988 15.4061 18.1681 15.6388 17.9357C15.8714 17.7032 16.0024 17.3879 16.0029 17.0591V5.80707H0.326904ZM10.5599 10.5391L7.83191 13.2671C7.78296 13.3161 7.72482 13.355 7.66081 13.3816C7.59681 13.4081 7.5282 13.4218 7.4589 13.4218C7.38961 13.4218 7.321 13.4081 7.257 13.3816C7.193 13.355 7.13486 13.3161 7.08591 13.2671L5.8069 11.9881C5.75437 11.9399 5.71212 11.8816 5.68272 11.8167C5.65332 11.7518 5.63736 11.6816 5.63581 11.6103C5.63426 11.5391 5.64716 11.4683 5.67371 11.4021C5.70027 11.336 5.73994 11.2759 5.79034 11.2255C5.84073 11.1751 5.90081 11.1354 5.96694 11.1089C6.03308 11.0823 6.10391 11.0694 6.17516 11.071C6.24641 11.0725 6.31661 11.0885 6.38153 11.1179C6.44645 11.1473 6.50475 11.1895 6.55291 11.2421L7.4589 12.1481L9.8149 9.79207C9.86389 9.74309 9.92204 9.70423 9.98604 9.67772C10.05 9.65121 10.1186 9.63757 10.1879 9.63757C10.2572 9.63757 10.3258 9.65121 10.3898 9.67772C10.4538 9.70423 10.5119 9.74309 10.5609 9.79207C10.6099 9.84105 10.6487 9.89921 10.6753 9.96321C10.7018 10.0272 10.7154 10.0958 10.7154 10.1651C10.7154 10.2343 10.7018 10.3029 10.6753 10.3669C10.6487 10.4309 10.6099 10.4891 10.5609 10.5381L10.5599 10.5391Z" fill="#C92027"></path></svg>