<svg width="43" height="29" viewBox="0 0 43 29" fill="none" xmlns="http://www.w3.org/2000/svg"><path d="M33.492 18.1899L34.4921 9.47797H31.859L28.2271 24.6968L41.144 23.9601L42.2023 20.0104L33.492 18.1899Z" fill="#C92027"></path><path d="M31.6702 20.0103H29.0371L27.626 25.2766H39.475C40.2021 25.2766 40.9495 24.6871 41.1443 23.96H31.9284C31.2013 23.96 30.7698 23.3706 30.9646 22.6435L31.6702 20.0103Z" fill="#C92027"></path><path d="M42.0187 18.3103L39.7929 16.719L37.2584 15.068L39.7709 12.1111L39.7629 10.4481C39.7602 9.87535 39.3464 9.47797 38.7527 9.47797H34.4921L31.6699 20.0104H42.2024L42.3554 19.4393C42.4792 18.9768 42.3514 18.5482 42.0187 18.3103Z" fill="#C92027"></path><path d="M27.1707 8.16132H32.8702C33.2337 8.16132 33.4495 8.45607 33.3521 8.81959L29.2952 23.96L10.2995 25.0747C9.93596 25.0747 9.79705 24.8983 9.89449 24.5347L13.526 10.8864L27.1707 8.16132Z" fill="#C92027"></path><path d="M11.5217 23.9601C11.1581 23.9601 10.9424 23.6653 11.0399 23.3018L12.0015 19.7131C12.1018 19.3386 12.5051 19.1246 12.8653 19.2681C14.0612 19.7446 15.3629 20.0105 16.7292 20.0105C22.5461 20.0105 27.2617 15.295 27.2617 9.47808C27.2617 9.03121 27.2247 8.59374 27.1707 8.16153H14.4385C14.0749 8.16153 13.7013 8.4562 13.6038 8.81981L9.37057 24.6185C9.27313 24.982 9.48891 25.2767 9.85243 25.2767H28.9424L29.2951 23.9602H11.5217V23.9601Z" fill="#C92027"></path><path d="M37.7327 27.0063C38.9843 25.911 39.3191 24.2464 38.4806 23.2883C37.6421 22.3302 35.9478 22.4414 34.6963 23.5367C33.4447 24.632 33.1099 26.2966 33.9484 27.2547C34.7869 28.2128 36.4812 28.1016 37.7327 27.0063Z" fill="black"></path><path d="M36.9731 26.1389C37.5989 25.5913 37.7663 24.759 37.347 24.2799C36.9278 23.8008 36.0806 23.8564 35.4548 24.4041C34.8291 24.9517 34.6617 25.7841 35.0809 26.2631C35.5002 26.7422 36.3474 26.6866 36.9731 26.1389Z" fill="white"></path><path d="M17.3177 27.0169C18.5692 25.9216 18.9041 24.257 18.0656 23.2989C17.2271 22.3408 15.5328 22.452 14.2812 23.5473C13.0297 24.6426 12.6949 26.3072 13.5334 27.2653C14.3719 28.2234 16.0662 28.1122 17.3177 27.0169Z" fill="black"></path><path d="M16.5581 26.1495C17.1838 25.6019 17.3512 24.7695 16.932 24.2905C16.5127 23.8114 15.6656 23.867 15.0398 24.4146C14.414 24.9623 14.2466 25.7946 14.6659 26.2737C15.0851 26.7527 15.9323 26.6972 16.5581 26.1495Z" fill="white"></path><path d="M39.7706 12.1111H36.4194L35.2534 13.4276L35.709 16.2931L39.7926 15.4024L39.7706 12.1111Z" fill="#ECEAEC"></path><path d="M36.8542 15.4024C36.1271 15.4024 35.6956 14.813 35.8904 14.0859L36.4196 12.1111C35.6924 12.1111 34.9451 12.7005 34.7503 13.4276L34.2211 15.4024C34.0263 16.1296 34.4578 16.719 35.1849 16.719H39.7928L39.7865 15.4024H36.8542Z" fill="#ECEAEC"></path><path d="M16.7296 18.6938C21.8193 18.6938 25.9454 14.5677 25.9454 9.4779C25.9454 4.38811 21.8193 0.262024 16.7296 0.262024C11.6398 0.262024 7.51367 4.38811 7.51367 9.4779C7.51367 14.5677 11.6398 18.6938 16.7296 18.6938Z" fill="#ECEAEC"></path><path d="M16.7294 17.3773C21.0921 17.3773 24.6287 13.8407 24.6287 9.478C24.6287 5.11532 21.0921 1.57867 16.7294 1.57867C12.3667 1.57867 8.83008 5.11532 8.83008 9.478C8.83008 13.8407 12.3667 17.3773 16.7294 17.3773Z" fill="white"></path><path d="M16.7296 4.21159C16.3657 4.21159 16.0713 3.91683 16.0713 3.55331V2.89503C16.0713 2.53151 16.3657 2.23676 16.7296 2.23676C17.0934 2.23676 17.3878 2.53151 17.3878 2.89503V3.55331C17.3878 3.91683 17.0934 4.21159 16.7296 4.21159Z" fill="#C8C5C9"></path><path d="M16.7296 16.7189C16.3657 16.7189 16.0713 16.4242 16.0713 16.0607V15.4024C16.0713 15.0389 16.3657 14.7441 16.7296 14.7441C17.0934 14.7441 17.3878 15.0389 17.3878 15.4024V16.0607C17.3878 16.4242 17.0934 16.7189 16.7296 16.7189Z" fill="#C8C5C9"></path><path d="M23.3126 10.1362H22.6544C22.2905 10.1362 21.9961 9.84141 21.9961 9.47789C21.9961 9.11437 22.2905 8.81961 22.6544 8.81961H23.3126C23.6765 8.81961 23.9709 9.11437 23.9709 9.47789C23.9709 9.84141 23.6766 10.1362 23.3126 10.1362Z" fill="#C8C5C9"></path><path d="M10.8048 10.1362H10.1466C9.78271 10.1362 9.48828 9.84141 9.48828 9.47789C9.48828 9.11437 9.78271 8.81961 10.1466 8.81961H10.8048C11.1687 8.81961 11.4631 9.11437 11.4631 9.47789C11.4631 9.84141 11.1687 10.1362 10.8048 10.1362Z" fill="#C8C5C9"></path><path d="M8.17171 18.6938H1.58894C1.22509 18.6938 0.930664 18.399 0.930664 18.0355C0.930664 17.672 1.22509 17.3772 1.58894 17.3772H8.17171C8.53556 17.3772 8.82999 17.672 8.82999 18.0355C8.82999 18.399 8.53556 18.6938 8.17171 18.6938Z" fill="black"></path><path d="M7.51321 21.3269H3.56355C3.1997 21.3269 2.90527 21.0321 2.90527 20.6686C2.90527 20.3051 3.1997 20.0103 3.56355 20.0103H7.51321C7.87706 20.0103 8.17149 20.3051 8.17149 20.6686C8.17149 21.0321 7.87706 21.3269 7.51321 21.3269Z" fill="black"></path><path d="M6.8552 23.96H5.53865C5.1748 23.96 4.88037 23.6652 4.88037 23.3017C4.88037 22.9382 5.1748 22.6434 5.53865 22.6434H6.8552C7.21905 22.6434 7.51348 22.9382 7.51348 23.3017C7.51348 23.6652 7.21905 23.96 6.8552 23.96Z" fill="black"></path><path d="M14.754 12.111C14.5856 12.111 14.4171 12.0467 14.2886 11.9181C14.0314 11.661 14.0314 11.2445 14.2886 10.9873L20.5422 4.73371C20.7993 4.47654 21.2158 4.47654 21.473 4.73371C21.7302 4.99088 21.7302 5.40738 21.473 5.66455L15.2194 11.9181C15.0908 12.0467 14.9224 12.111 14.754 12.111Z" fill="#E5646E"></path><path d="M16.7296 10.7944C17.4568 10.7944 18.0462 10.205 18.0462 9.47787C18.0462 8.75076 17.4568 8.16132 16.7296 8.16132C16.0025 8.16132 15.4131 8.75076 15.4131 9.47787C15.4131 10.205 16.0025 10.7944 16.7296 10.7944Z" fill="#5D5360"></path></svg>