<svg width="61" height="61" viewBox="0 0 61 61" fill="none" xmlns="http://www.w3.org/2000/svg"><rect x="0.5" y="0.832031" width="60" height="60" rx="30" fill="#C92027"></rect><g clip-path="url(#clip0_7810_244246)"><path d="M46.5303 24.5177C45.9148 23.8677 45.1702 23.3535 44.3443 23.0082C43.5185 22.6628 42.6295 22.4938 41.7345 22.5121H36.7939V19.7372C36.7932 19.4983 36.6983 19.2693 36.5299 19.0998C36.3614 18.9304 36.133 18.8342 35.8941 18.832H13.4052C13.1653 18.8327 12.9355 18.9283 12.7659 19.0979C12.5963 19.2675 12.5007 19.4974 12.5 19.7372V39.6366C12.5007 39.8764 12.5963 40.1062 12.7659 40.2758C12.9355 40.4454 13.1653 40.541 13.4052 40.5417H17.0097C17.1538 41.3671 17.5845 42.1151 18.2259 42.6542C18.8673 43.1932 19.6782 43.4888 20.5161 43.4888C21.3539 43.4888 22.1649 43.1932 22.8063 42.6542C23.4477 42.1151 23.8783 41.3671 24.0225 40.5417H37.8736C38.0178 41.3671 38.4484 42.1151 39.0898 42.6542C39.7312 43.1932 40.5422 43.4888 41.38 43.4888C42.2178 43.4888 43.0288 43.1932 43.6702 42.6542C44.3116 42.1151 44.7423 41.3671 44.8864 40.5417H47.5857C47.8256 40.541 48.0554 40.4454 48.225 40.2758C48.3946 40.1062 48.4902 39.8764 48.4909 39.6366V30.2861C48.5891 28.1847 47.8887 26.124 46.5303 24.5177ZM14.3094 20.6415H34.9862V38.7386H23.8632C23.6167 38.048 23.1626 37.4505 22.5632 37.0281C21.9638 36.6056 21.2485 36.3788 20.5152 36.3788C19.7819 36.3788 19.0665 36.6056 18.4671 37.0281C17.8677 37.4505 17.4137 38.048 17.1671 38.7386H14.3094V20.6415ZM20.5179 41.68C20.1718 41.6803 19.8334 41.578 19.5455 41.386C19.2576 41.194 19.0331 40.9209 18.9005 40.6012C18.7679 40.2816 18.733 39.9298 18.8004 39.5903C18.8677 39.2509 19.0343 38.939 19.2789 38.6943C19.5236 38.4495 19.8353 38.2828 20.1747 38.2153C20.5141 38.1477 20.866 38.1824 21.1857 38.3149C21.5054 38.4474 21.7786 38.6717 21.9708 38.9595C22.1629 39.2473 22.2654 39.5856 22.2652 39.9317C22.2645 40.3955 22.0799 40.84 21.7518 41.1678C21.4237 41.4955 20.9789 41.6797 20.5152 41.68H20.5179ZM41.3827 41.68C41.0366 41.6805 40.6981 41.5783 40.4101 41.3864C40.1221 41.1945 39.8975 40.9215 39.7647 40.6018C39.6319 40.2822 39.5969 39.9304 39.6642 39.5909C39.7315 39.2514 39.8979 38.9395 40.1425 38.6946C40.3871 38.4497 40.6989 38.2829 41.0383 38.2153C41.3778 38.1477 41.7296 38.1823 42.0494 38.3148C42.3691 38.4472 42.6424 38.6716 42.8346 38.9594C43.0268 39.2472 43.1293 39.5856 43.1292 39.9317C43.1285 40.3948 42.9443 40.8388 42.617 41.1665C42.2896 41.4941 41.8458 41.6788 41.3827 41.68ZM46.6761 38.7314H44.7281C44.4815 38.0408 44.0274 37.4433 43.4281 37.0209C42.8287 36.5984 42.1133 36.3716 41.38 36.3716C40.6467 36.3716 39.9313 36.5984 39.332 37.0209C38.7326 37.4433 38.2785 38.0408 38.032 38.7314H36.8029V24.3215H41.7426C44.7892 24.3215 46.6815 26.6061 46.6815 30.2861V38.7314H46.6761Z" fill="white"></path></g><defs><clipPath id="clip0_7810_244246"><rect width="36" height="36" fill="white" transform="translate(12.5 12.832)"></rect></clipPath></defs></svg>