<svg width="60" height="61" viewBox="0 0 60 61" fill="none" xmlns="http://www.w3.org/2000/svg"><rect y="0.832031" width="60" height="60" rx="30" fill="#C92027"></rect><g clip-path="url(#clip0_7810_244254)"><path d="M31.3402 29.9135H28.6677C28.1335 29.9135 27.6212 29.7013 27.2434 29.3236C26.8657 28.9459 26.6535 28.4336 26.6535 27.8994C26.6535 27.3652 26.8657 26.8529 27.2434 26.4751C27.6212 26.0974 28.1335 25.8852 28.6677 25.8852H33.3849C33.5056 25.8852 33.6251 25.8614 33.7365 25.8152C33.848 25.7691 33.9493 25.7014 34.0346 25.6161C34.12 25.5307 34.1876 25.4295 34.2338 25.318C34.28 25.2065 34.3038 25.087 34.3038 24.9663C34.3038 24.8457 34.28 24.7262 34.2338 24.6147C34.1876 24.5032 34.12 24.4019 34.0346 24.3166C33.9493 24.2313 33.848 24.1636 33.7365 24.1174C33.6251 24.0713 33.5056 24.0475 33.3849 24.0475H30.9263V22.1708C30.9263 22.0501 30.9025 21.9307 30.8564 21.8192C30.8102 21.7077 30.7425 21.6064 30.6572 21.5211C30.5719 21.4358 30.4706 21.3681 30.3591 21.3219C30.2476 21.2757 30.1281 21.252 30.0075 21.252C29.8868 21.252 29.7673 21.2757 29.6558 21.3219C29.5443 21.3681 29.4431 21.4358 29.3577 21.5211C29.2724 21.6064 29.2047 21.7077 29.1585 21.8192C29.1124 21.9307 29.0886 22.0501 29.0886 22.1708V24.0515H28.6677C27.646 24.0515 26.6661 24.4574 25.9436 25.1798C25.2212 25.9023 24.8153 26.8822 24.8153 27.9039C24.8153 28.9256 25.2212 29.9054 25.9436 30.6279C26.6661 31.3504 27.646 31.7562 28.6677 31.7562H31.3402C31.8744 31.7562 32.3868 31.9684 32.7645 32.3462C33.1422 32.7239 33.3544 33.2362 33.3544 33.7704C33.3544 34.3046 33.1422 34.8169 32.7645 35.1946C32.3868 35.5724 31.8744 35.7846 31.3402 35.7846H26.541C26.2973 35.7846 26.0636 35.8814 25.8913 36.0537C25.719 36.226 25.6222 36.4597 25.6222 36.7034C25.6222 36.9471 25.719 37.1808 25.8913 37.3532C26.0636 37.5255 26.2973 37.6223 26.541 37.6223H29.0836V39.537C29.0836 39.7807 29.1804 40.0144 29.3527 40.1867C29.525 40.359 29.7588 40.4558 30.0025 40.4558C30.2462 40.4558 30.4799 40.359 30.6522 40.1867C30.8245 40.0144 30.9213 39.7807 30.9213 39.537V37.6223H31.3882C32.4099 37.6162 33.3874 37.2045 34.1055 36.4777C34.8237 35.7509 35.2237 34.7686 35.2176 33.7469C35.2115 32.7252 34.7998 31.7478 34.073 31.0296C33.3462 30.3115 32.364 29.9114 31.3422 29.9175L31.3402 29.9135Z" fill="white"></path><path d="M42.7279 18.1041C39.3523 14.7285 34.7739 12.832 30 12.832C25.2261 12.832 20.6477 14.7285 17.2721 18.1041C13.8964 21.4798 12 26.0581 12 30.832C12 35.6059 13.8964 40.1843 17.2721 43.56C20.6477 46.9356 25.2261 48.832 30 48.832C34.7739 48.832 39.3523 46.9356 42.7279 43.56C46.1036 40.1843 48 35.6059 48 30.832C48 26.0581 46.1036 21.4798 42.7279 18.1041ZM30 46.9914C26.804 46.9914 23.6797 46.0437 21.0223 44.2681C18.3649 42.4924 16.2938 39.9687 15.0707 37.016C13.8476 34.0632 13.5276 30.8141 14.1511 27.6795C14.7746 24.5449 16.3137 21.6656 18.5736 19.4056C20.8335 17.1457 23.7129 15.6067 26.8475 14.9832C29.9821 14.3597 33.2312 14.6797 36.1839 15.9027C39.1367 17.1258 41.6604 19.197 43.436 21.8544C45.2116 24.5118 46.1594 27.636 46.1594 30.832C46.1533 35.1159 44.4488 39.2226 41.4197 42.2517C38.3905 45.2809 34.2839 46.9853 30 46.9914Z" fill="white"></path></g><defs><clipPath id="clip0_7810_244254"><rect width="36" height="36" fill="white" transform="translate(12 12.832)"></rect></clipPath></defs></svg>