<svg xmlns="http://www.w3.org/2000/svg" width="24" height="24" viewBox="0 0 24 24" fill="none"><rect width="24" height="24" rx="12" fill="#FC0D1B"></rect><path fill-rule="evenodd" clip-rule="evenodd" d="M6.34376 6.55131C5.22972 6.60651 4.33483 7.47881 4.26253 8.59187C4.19327 9.65827 4.125 10.9704 4.125 12C4.125 13.0296 4.19327 14.3417 4.26253 15.4081C4.33483 16.5212 5.22972 17.3935 6.34376 17.4487C7.95697 17.5286 10.2627 17.625 12 17.625C13.7373 17.625 16.043 17.5286 17.6562 17.4487C18.7703 17.3935 19.6652 16.5212 19.7375 15.4081C19.8067 14.3417 19.875 13.0296 19.875 12C19.875 10.9704 19.8067 9.65827 19.7375 8.59187C19.6652 7.47881 18.7703 6.60651 17.6562 6.55131C16.043 6.47139 13.7373 6.375 12 6.375C10.2627 6.375 7.95697 6.47139 6.34376 6.55131ZM14.8125 12L10.3125 14.25V9.75L14.8125 12Z" fill="white"></path></svg>