<svg width="25" height="24" viewBox="0 0 25 24" fill="none" xmlns="http://www.w3.org/2000/svg"><path d="M2.25 2H3.99001C5.07001 2 5.92 2.93 5.83 4L5 13.96C4.86 15.59 6.14999 16.99 7.78999 16.99H18.44C19.88 16.99 21.14 15.81 21.25 14.38L21.79 6.88C21.91 5.22 20.65 3.87 18.98 3.87H6.07001" stroke-width="1.5" stroke-miterlimit="10" stroke-linecap="round" stroke-linejoin="round"></path><path d="M16.5 22C17.1904 22 17.75 21.4404 17.75 20.75C17.75 20.0596 17.1904 19.5 16.5 19.5C15.8096 19.5 15.25 20.0596 15.25 20.75C15.25 21.4404 15.8096 22 16.5 22Z" stroke-width="1.5" stroke-miterlimit="10" stroke-linecap="round" stroke-linejoin="round"></path><path d="M8.5 22C9.19036 22 9.75 21.4404 9.75 20.75C9.75 20.0596 9.19036 19.5 8.5 19.5C7.80964 19.5 7.25 20.0596 7.25 20.75C7.25 21.4404 7.80964 22 8.5 22Z" stroke-width="1.5" stroke-miterlimit="10" stroke-linecap="round" stroke-linejoin="round"></path><path d="M9.25 8H21.25" stroke-width="1.5" stroke-miterlimit="10" stroke-linecap="round" stroke-linejoin="round"></path></svg>