<svg width="18" height="21" viewBox="0 0 18 21" fill="none" xmlns="http://www.w3.org/2000/svg"><path d="M0.901086 20.3C0.694829 20.3 0.49699 20.2182 0.350956 20.0726C0.204923 19.9269 0.122616 19.7293 0.122086 19.523V5.77004C0.121428 5.66723 0.141077 5.56529 0.179905 5.47009C0.218734 5.37489 0.275979 5.28829 0.348355 5.21526C0.420732 5.14224 0.506815 5.08422 0.601666 5.04454C0.696518 5.00486 0.79827 4.9843 0.901086 4.98404H3.28709C3.44223 3.69357 4.06487 2.50469 5.03724 1.64221C6.00962 0.779738 7.26433 0.303467 8.56409 0.303467C9.86385 0.303467 11.1186 0.779738 12.0909 1.64221C13.0633 2.50469 13.6859 3.69357 13.8411 4.98404H16.2221C16.3254 4.98364 16.4278 5.0037 16.5233 5.04306C16.6189 5.08242 16.7057 5.14031 16.7788 5.21337C16.8518 5.28644 16.9097 5.37324 16.9491 5.46878C16.9884 5.56432 17.0085 5.66671 17.0081 5.77004V19.523C17.0076 19.6257 16.9868 19.7272 16.947 19.8218C16.9072 19.9165 16.8492 20.0023 16.7762 20.0745C16.7032 20.1466 16.6166 20.2037 16.5216 20.2424C16.4265 20.2811 16.3247 20.3007 16.2221 20.3H0.901086ZM4.86409 4.98404H12.2641C12.1169 4.10917 11.6645 3.31475 10.9871 2.74183C10.3097 2.16891 9.45125 1.85454 8.56409 1.85454C7.67692 1.85454 6.81845 2.16891 6.14108 2.74183C5.46372 3.31475 5.01128 4.10917 4.86409 4.98404Z" fill="black"></path><path d="M12.7541 8.65607V6.78107H14.5011V8.65607C14.5011 9.00107 14.1101 9.28107 13.6281 9.28107C13.1461 9.28107 12.7541 9.00107 12.7541 8.65607ZM2.62207 8.65607V6.78107H4.36907V8.65607C4.36907 9.00107 3.97807 9.28107 3.49507 9.28107C3.01207 9.28107 2.62207 9.00107 2.62207 8.65607Z" fill="white"></path></svg>