<svg width="24" height="24" viewBox="0 0 24 24" fill="none" xmlns="http://www.w3.org/2000/svg"><rect width="24" height="24" rx="12" fill="black"></rect><path d="M7.28063 14.3702C7.3783 13.5615 7.70996 13.1088 8.33498 12.6446C9.22927 12.016 10.3464 12.3716 10.3464 12.3716V10.2621C10.6179 10.2552 10.8896 10.2713 11.1582 10.3102V13.0249C11.1582 13.0249 10.0415 12.6693 9.1472 13.2983C8.52252 13.7621 8.19017 14.2152 8.09284 15.0239C8.08979 15.463 8.1722 16.037 8.55169 16.5333C8.45786 16.4852 8.36223 16.4304 8.26478 16.3689C7.42883 15.8075 7.27656 14.9654 7.28063 14.3702ZM15.7708 6.36168C15.1556 5.68756 14.9229 5.00694 14.8388 4.52881H15.6127C15.6127 4.52881 15.4584 5.78247 16.583 7.01533L16.5986 7.0319C16.2955 6.84125 16.0175 6.61622 15.7708 6.36168ZM19.4988 8.27289V10.933C19.4988 10.933 18.5113 10.8943 17.7804 10.7084C16.76 10.4483 16.1041 10.0495 16.1041 10.0495C16.1041 10.0495 15.651 9.76512 15.6144 9.7453V15.2384C15.6144 15.5442 15.5306 16.3081 15.2753 16.9451C14.9419 17.7785 14.4275 18.3256 14.3328 18.4374C14.3328 18.4374 13.7071 19.1768 12.6033 19.6748C11.6083 20.124 10.7347 20.1126 10.4735 20.124C10.4735 20.124 8.96339 20.1838 7.6045 19.3007C7.31064 19.106 7.03635 18.8856 6.78516 18.6422L6.79194 18.647C8.15117 19.5301 9.66098 19.4703 9.66098 19.4703C9.92245 19.459 10.7961 19.4703 11.7907 19.0211C12.8936 18.5232 13.5203 17.7837 13.5203 17.7837C13.6139 17.6719 14.1307 17.1249 14.4627 16.2912C14.7174 15.6544 14.8019 14.8903 14.8019 14.5844V9.09197C14.8385 9.11213 15.2912 9.39653 15.2912 9.39653C15.2912 9.39653 15.9474 9.79568 16.9679 10.0554C17.699 10.2413 18.6863 10.28 18.6863 10.28V8.19553C19.024 8.27126 19.3119 8.29174 19.4988 8.27289Z" fill="#EE1D52"></path><path d="M18.6861 8.19553V10.2793C18.6861 10.2793 17.6989 10.2406 16.9677 10.0547C15.9473 9.7947 15.2911 9.39588 15.2911 9.39588C15.2911 9.39588 14.8383 9.11148 14.8017 9.09132V14.5851C14.8017 14.8909 14.7179 15.6551 14.4626 16.2918C14.1292 17.1255 13.6147 17.6726 13.5201 17.7844C13.5201 17.7844 12.8941 18.5238 11.7905 19.0218C10.7959 19.471 9.92228 19.4596 9.66081 19.471C9.66081 19.471 8.151 19.5308 6.79177 18.6477L6.78498 18.6428C6.64148 18.5038 6.5064 18.3571 6.3804 18.2034C5.94665 17.6745 5.68078 17.0492 5.61397 16.8707C5.61385 16.87 5.61385 16.8692 5.61397 16.8684C5.50646 16.5584 5.2806 15.8137 5.31146 15.0924C5.36606 13.8199 5.81372 13.0389 5.93207 12.8432C6.24553 12.3096 6.65322 11.8322 7.137 11.4322C7.56391 11.0871 8.04779 10.8125 8.56881 10.6196C9.13205 10.3932 9.73517 10.2719 10.3459 10.2621V12.3716C10.3459 12.3716 9.22876 12.0173 8.33481 12.6446C7.70979 13.1088 7.37812 13.5615 7.28045 14.3702C7.27638 14.9654 7.42865 15.8075 8.26393 16.3692C8.36138 16.4309 8.45701 16.4858 8.55084 16.5337C8.69676 16.7233 8.87437 16.8886 9.07649 17.0228C9.89244 17.5393 10.5761 17.5754 11.4504 17.24C12.0334 17.0157 12.4722 16.5102 12.6757 15.9502C12.8035 15.6005 12.8018 15.2485 12.8018 14.8844V4.52881H14.8366C14.9207 5.00694 15.1534 5.68756 15.7685 6.36168C16.0153 6.61622 16.2933 6.84125 16.5964 7.0319C16.6859 7.12454 17.1437 7.58251 17.7314 7.86367C18.0353 8.009 18.3556 8.12035 18.6861 8.19553Z" fill="white"></path><path d="M4.80469 16.2231V16.2248L4.85518 16.3616C4.84938 16.3457 4.83061 16.2973 4.80469 16.2231Z" fill="#69C9D0"></path><path d="M8.57051 10.6199C8.0495 10.8127 7.56561 11.0873 7.1387 11.4325C6.65477 11.8334 6.24718 12.3118 5.93411 12.8464C5.81576 13.0414 5.3681 13.8231 5.3135 15.0956C5.28264 15.8169 5.5085 16.5615 5.61601 16.8716C5.61589 16.8724 5.61589 16.8731 5.61601 16.8739C5.68383 17.0507 5.94869 17.6761 6.38244 18.2065C6.50844 18.3603 6.64352 18.507 6.78702 18.646C6.32723 18.3412 5.91716 17.9727 5.57023 17.5526C5.14021 17.0283 4.87501 16.4094 4.80583 16.2268C4.80574 16.2255 4.80574 16.2242 4.80583 16.2229V16.2206C4.69798 15.9108 4.47144 15.1658 4.50298 14.4436C4.55758 13.1711 5.00523 12.39 5.12359 12.1944C5.43657 11.6597 5.84417 11.1813 6.32818 10.7805C6.755 10.4352 7.23891 10.1606 7.75999 9.96788C8.08501 9.83863 8.42361 9.74328 8.76992 9.68348C9.29183 9.59616 9.82487 9.58859 10.3492 9.66105V10.2624C9.738 10.2719 9.13427 10.3933 8.57051 10.6199Z" fill="#69C9D0"></path><path d="M14.8418 4.52897H12.807V14.8849C12.807 15.2489 12.807 15.6 12.6809 15.9507C12.4754 16.5104 12.0382 17.0158 11.4556 17.2401C10.581 17.5768 9.8973 17.5395 9.0817 17.023C8.87923 16.8894 8.70116 16.7246 8.55469 16.5354C9.24957 16.8907 9.87153 16.8845 10.642 16.5881C11.2243 16.3638 11.6621 15.8584 11.867 15.2984C11.9952 14.9486 11.9935 14.5966 11.9935 14.2329V3.875H14.8032C14.8032 3.875 14.7716 4.13243 14.8418 4.52897ZM18.6896 7.6194V8.19569C18.3597 8.12039 18.04 8.00904 17.7366 7.86383C17.1489 7.58267 16.6911 7.1247 16.6016 7.03206C16.7055 7.09744 16.8133 7.15691 16.9244 7.21018C17.639 7.55212 18.3427 7.65418 18.6896 7.6194Z" fill="#69C9D0"></path></svg>