<svg width="24" height="24" viewBox="0 0 24 24" fill="none" xmlns="http://www.w3.org/2000/svg"><path d="M21.8445 14.8124C21.6705 14.8128 21.5038 14.8821 21.3809 15.0053C21.258 15.1285 21.189 15.2954 21.189 15.4694V20.0639H2.8125V12.1934H10.032C10.2006 12.1853 10.3597 12.1126 10.4762 11.9905C10.5926 11.8683 10.6576 11.7059 10.6576 11.5371C10.6576 11.3683 10.5926 11.206 10.4762 11.0838C10.3597 10.9616 10.2006 10.8889 10.032 10.8809H2.8125V8.25586H10.032C10.2006 8.2478 10.3597 8.17514 10.4762 8.05296C10.5926 7.93077 10.6576 7.76842 10.6576 7.59961C10.6576 7.4308 10.5926 7.26845 10.4762 7.14626C10.3597 7.02408 10.2006 6.95142 10.032 6.94336H2.8125C2.4644 6.94336 2.13056 7.08165 1.88442 7.32779C1.63828 7.57393 1.5 7.90776 1.5 8.25586L1.5 20.0684C1.5 20.4165 1.63828 20.7503 1.88442 20.9964C2.13056 21.2426 2.4644 21.3809 2.8125 21.3809H21.1875C21.5356 21.3809 21.8694 21.2426 22.1156 20.9964C22.3617 20.7503 22.5 20.4165 22.5 20.0684V15.4754C22.5008 15.3887 22.4844 15.3028 22.4519 15.2225C22.4193 15.1421 22.3712 15.0691 22.3102 15.0074C22.2493 14.9458 22.1768 14.8969 22.0969 14.8634C22.0169 14.8299 21.9312 14.8126 21.8445 14.8124Z" fill="black"></path><path d="M7.40688 14.8184H4.78188C4.61325 14.8264 4.4542 14.8991 4.33772 15.0213C4.22124 15.1435 4.15625 15.3058 4.15625 15.4746C4.15625 15.6434 4.22124 15.8057 4.33772 15.9279C4.4542 16.0501 4.61325 16.1228 4.78188 16.1309H7.40688C7.5755 16.1228 7.73454 16.0501 7.85102 15.9279C7.9675 15.8057 8.03249 15.6434 8.03249 15.4746C8.03249 15.3058 7.9675 15.1435 7.85102 15.0213C7.73454 14.8991 7.5755 14.8264 7.40688 14.8184Z" fill="black"></path><path d="M22.1029 5.02025L17.5099 3.05225C17.4278 3.01776 17.3396 3 17.2504 3C17.1613 3 17.0731 3.01776 16.9909 3.05225L12.398 5.02175C12.2809 5.07263 12.1812 5.15642 12.1109 5.26294C12.0406 5.36947 12.0027 5.49412 12.002 5.62175V8.24375C12.002 11.8543 13.3369 13.9648 16.9249 16.0318C17.0245 16.0886 17.1373 16.1185 17.252 16.1185C17.3666 16.1185 17.4793 16.0886 17.5789 16.0318C21.1654 13.9753 22.5004 11.8648 22.5004 8.24375V5.61875C22.4995 5.49117 22.4614 5.36663 22.3908 5.26035C22.3202 5.15407 22.2201 5.07064 22.1029 5.02025ZM21.1879 8.24825C21.1879 11.2782 20.1844 12.9477 17.2504 14.7057C14.3164 12.9432 13.3129 11.2752 13.3129 8.24825V6.05825L17.2504 4.37075L21.1879 6.05825V8.24825Z" fill="black"></path><path d="M19.629 7.08002C19.4928 6.97217 19.3196 6.92241 19.1469 6.9415C18.9742 6.9606 18.8159 7.04702 18.7065 7.18203L16.644 9.76204L15.828 8.54104C15.7803 8.46934 15.7189 8.40773 15.6473 8.35977C15.5757 8.3118 15.4954 8.27841 15.4109 8.26149C15.3264 8.24456 15.2395 8.24445 15.1549 8.26114C15.0704 8.27784 14.99 8.31101 14.9183 8.35878C14.8466 8.40655 14.785 8.46798 14.737 8.53955C14.6891 8.61113 14.6557 8.69144 14.6388 8.77592C14.6218 8.8604 14.6217 8.94738 14.6384 9.0319C14.6551 9.11643 14.6883 9.19684 14.736 9.26854L16.0485 11.238C16.1053 11.3254 16.1819 11.3981 16.2721 11.4502C16.3623 11.5023 16.4635 11.5324 16.5676 11.538H16.5946C16.6932 11.5379 16.7905 11.5156 16.8793 11.4728C16.9681 11.4299 17.0461 11.3676 17.1075 11.2905L19.7325 8.01004C19.7874 7.94243 19.8283 7.86458 19.8528 7.78104C19.8773 7.6975 19.885 7.60992 19.8754 7.52339C19.8657 7.43685 19.839 7.35308 19.7967 7.27697C19.7544 7.20086 19.6974 7.13391 19.629 7.08002Z" fill="black"></path></svg>