<svg width="21" height="21" viewBox="0 0 21 21" fill="none" xmlns="http://www.w3.org/2000/svg"><path d="M16.3259 9.70705V0.930049C16.3259 0.762962 16.2596 0.602719 16.1414 0.484572C16.0233 0.366424 15.863 0.300049 15.6959 0.300049L11.3039 0.300049V6.52405C11.3043 6.63809 11.2736 6.75007 11.2153 6.84807C11.157 6.94607 11.0732 7.0264 10.9728 7.08049C10.8724 7.13459 10.7592 7.16042 10.6453 7.15524C10.5314 7.15005 10.421 7.11404 10.3259 7.05105L8.32593 5.73905L6.32593 7.05105C6.23091 7.11324 6.12084 7.14859 6.00738 7.15336C5.89391 7.15812 5.78127 7.13213 5.68136 7.07813C5.58146 7.02413 5.49801 6.94413 5.43984 6.8466C5.38167 6.74906 5.35095 6.63761 5.35093 6.52405V0.300049H0.955928C0.788841 0.300049 0.628598 0.366424 0.51045 0.484572C0.392303 0.602719 0.325928 0.762962 0.325928 0.930049L0.325928 14.23C0.325928 14.3128 0.342223 14.3947 0.373884 14.4711C0.405544 14.5476 0.45195 14.617 0.51045 14.6755C0.568951 14.734 0.638402 14.7804 0.714837 14.8121C0.791272 14.8438 0.873195 14.86 0.955928 14.86H10.0709C10.3089 13.3875 11.0752 12.0522 12.2265 11.1037C13.3777 10.1553 14.8351 9.65877 16.3259 9.70705Z" fill="#999999"></path><path d="M8.67093 4.45905L10.0439 5.35905V0.300049H6.60693V5.35805L7.97993 4.45805C8.08259 4.39063 8.20277 4.35479 8.32559 4.35497C8.44841 4.35514 8.56847 4.39133 8.67093 4.45905Z" fill="#999999"></path><path d="M16.5559 12.4811C15.8103 12.4811 15.0814 12.7022 14.4614 13.1164C13.8414 13.5307 13.3582 14.1195 13.0729 14.8083C12.7875 15.4972 12.7129 16.2553 12.8583 16.9866C13.0038 17.7179 13.3629 18.3896 13.8901 18.9169C14.4173 19.4441 15.0891 19.8032 15.8204 19.9486C16.5517 20.0941 17.3097 20.0194 17.9986 19.7341C18.6875 19.4488 19.2763 18.9656 19.6905 18.3456C20.1048 17.7256 20.3259 16.9967 20.3259 16.2511C20.3248 15.2515 19.9273 14.2932 19.2205 13.5865C18.5137 12.8797 17.5554 12.4821 16.5559 12.4811ZM18.7759 15.5811L16.2959 18.0621C16.2044 18.1535 16.0803 18.2049 15.9509 18.2049C15.8215 18.2049 15.6974 18.1535 15.6059 18.0621L14.2429 16.6991C14.1961 16.6541 14.1587 16.6002 14.133 16.5406C14.1073 16.4811 14.0937 16.4169 14.0931 16.3521C14.0924 16.2872 14.1047 16.2228 14.1293 16.1627C14.1538 16.1026 14.1901 16.048 14.236 16.0021C14.2818 15.9562 14.3365 15.92 14.3965 15.8954C14.4566 15.8709 14.521 15.8586 14.5859 15.8592C14.6508 15.8599 14.7149 15.8735 14.7745 15.8992C14.8341 15.9249 14.8879 15.9623 14.9329 16.0091L15.9509 17.0271L18.0859 14.8921C18.178 14.8035 18.3011 14.7547 18.4289 14.756C18.5566 14.7572 18.6788 14.8085 18.7691 14.8989C18.8594 14.9892 18.9107 15.1113 18.912 15.2391C18.9133 15.3668 18.8644 15.49 18.7759 15.5821V15.5811Z" fill="#999999"></path></svg>