<svg width="60" height="61" viewBox="0 0 60 61" fill="none" xmlns="http://www.w3.org/2000/svg"><rect y="0.832031" width="60" height="60" rx="30" fill="#C92027"></rect><g clip-path="url(#clip0_7810_244239)"><path d="M42.2486 26.5224V25.1387C42.2887 21.9335 41.11 18.8326 38.9508 16.4634C37.8737 15.3044 36.5667 14.3828 35.1132 13.7577C33.6597 13.1325 32.0918 12.8174 30.5097 12.8326H29.3678C27.7856 12.8174 26.2177 13.1325 24.7643 13.7577C23.3108 14.3828 22.0037 15.3044 20.9266 16.4634C18.7675 18.8326 17.5887 21.9335 17.6288 25.1387V26.5233C16.3745 26.609 15.1993 27.1671 14.3403 28.0852C13.4813 29.0032 13.0023 30.2128 13 31.47V33.6335C13.002 34.9468 13.5246 36.2058 14.4533 37.1345C15.3819 38.0631 16.6409 38.5857 17.9543 38.5877H20.7451C20.9856 38.587 21.216 38.4911 21.3861 38.321C21.5562 38.151 21.652 37.9205 21.6528 37.68V27.4122C21.652 27.1717 21.5562 26.9412 21.3861 26.7712C21.216 26.6011 20.9856 26.5052 20.7451 26.5045H19.4433V25.1387C19.4433 19.1554 23.7099 14.648 29.3602 14.648H30.5022C36.16 14.648 40.4191 19.1554 40.4191 25.1387V26.5073H39.1173C38.8768 26.5081 38.6464 26.6039 38.4763 26.774C38.3062 26.9441 38.2104 27.1745 38.2096 27.415V37.6678C38.2104 37.9083 38.3062 38.1387 38.4763 38.3088C38.6464 38.4789 38.8768 38.5747 39.1173 38.5755H40.3881C40.0175 43.3106 36.7573 44.4073 35.2448 44.6566C35.0359 44.0169 34.6302 43.4595 34.0855 43.0642C33.5409 42.6689 32.8852 42.4558 32.2122 42.4556H29.9425C29.0969 42.4556 28.286 42.7915 27.6881 43.3894C27.0901 43.9873 26.7542 44.7982 26.7542 45.6438C26.7542 46.4894 27.0901 47.3003 27.6881 47.8982C28.286 48.4961 29.0969 48.832 29.9425 48.832H32.2188C32.9166 48.8305 33.5948 48.6004 34.1494 48.1769C34.7041 47.7534 35.1047 47.1599 35.2899 46.4871C36.3738 46.3359 37.4188 45.979 38.3686 45.4354C40.01 44.4751 41.9533 42.5195 42.211 38.5689C43.4703 38.4904 44.6524 37.9349 45.5165 37.0156C46.3807 36.0962 46.862 34.882 46.8624 33.6203V31.4569C46.8635 30.2023 46.3873 28.9944 45.5305 28.078C44.6737 27.1616 43.5004 26.6055 42.2486 26.5224ZM19.8524 36.7639H17.9712C17.1384 36.7629 16.3401 36.4311 15.7518 35.8416C15.1635 35.2521 14.8335 34.4531 14.8342 33.6203V31.4569C14.8347 30.6245 15.1656 29.8265 15.7541 29.2379C16.3427 28.6494 17.1407 28.3185 17.9731 28.318H19.8543L19.8524 36.7639ZM32.2188 47.0166H29.9425C29.5794 47.0166 29.2312 46.8724 28.9744 46.6156C28.7176 46.3589 28.5734 46.0107 28.5734 45.6476C28.5734 45.2845 28.7176 44.9362 28.9744 44.6795C29.2312 44.4227 29.5794 44.2785 29.9425 44.2785H32.2188C32.5819 44.2785 32.9301 44.4227 33.1869 44.6795C33.4436 44.9362 33.5879 45.2845 33.5879 45.6476C33.5879 46.0107 33.4436 46.3589 33.1869 46.6156C32.9301 46.8724 32.5819 47.0166 32.2188 47.0166ZM45.0545 33.6203C45.054 34.4526 44.7232 35.2507 44.1346 35.8393C43.5461 36.4278 42.748 36.7587 41.9157 36.7592H40.0344V28.3227H41.9157C42.748 28.3232 43.5461 28.6541 44.1346 29.2426C44.7232 29.8312 45.054 30.6292 45.0545 31.4616V33.6203Z" fill="white"></path></g><defs><clipPath id="clip0_7810_244239"><rect width="36" height="36" fill="white" transform="translate(12 12.832)"></rect></clipPath></defs></svg>