<svg width="62" height="61" viewBox="0 0 62 61" fill="none" xmlns="http://www.w3.org/2000/svg"><rect x="0.998535" y="0.832031" width="60.0027" height="60" rx="30" fill="#C92027"></rect><path d="M47.2145 26.0904C46.3244 25.2952 45.1899 24.8545 44.0145 24.8473H36.2445V19.0358C36.2445 16.5931 35.5565 14.831 34.1965 13.7971C32.0455 12.1583 29.0805 13.0927 28.9545 13.1383C28.7751 13.1969 28.6182 13.3131 28.5066 13.47C28.395 13.627 28.3344 13.8166 28.3335 14.0116V20.514C28.3193 21.5868 28.046 22.6389 27.5383 23.574C27.0307 24.5092 26.305 25.2978 25.4275 25.8677C24.4874 26.5551 23.4528 27.0922 22.3585 27.4609L22.1445 27.5148C21.9834 27.2305 21.7532 26.9949 21.4769 26.8313C21.2006 26.6677 20.8878 26.582 20.5695 26.5825H14.8245C14.3409 26.5836 13.8774 26.7829 13.5352 27.137C13.1931 27.491 13.0001 27.971 12.9985 28.472V45.9646C12.9996 46.4659 13.1923 46.9464 13.5345 47.3009C13.8767 47.6555 14.3406 47.8551 14.8245 47.8562H20.5845C20.8517 47.8551 21.1155 47.7935 21.3573 47.6758C21.5991 47.558 21.8132 47.387 21.9845 47.1746C22.4518 47.6944 23.0169 48.1097 23.645 48.3947C24.2731 48.6798 24.9508 48.8286 25.6365 48.832H41.0045C44.3985 48.832 46.5645 46.9943 46.9485 43.7767L48.9375 30.9945C49.075 30.0928 48.989 29.1697 48.6876 28.3119C48.3862 27.454 47.8793 26.6896 47.2145 26.0904ZM20.6285 45.9646C20.6287 45.9717 20.6274 45.9788 20.6249 45.9854C20.6223 45.992 20.6185 45.998 20.6136 46.003C20.6088 46.008 20.603 46.012 20.5966 46.0147C20.5902 46.0173 20.5834 46.0186 20.5765 46.0185H14.8245C14.8177 46.0186 14.8108 46.0173 14.8045 46.0147C14.7981 46.012 14.7923 46.008 14.7875 46.003C14.7826 45.998 14.7788 45.992 14.7762 45.9854C14.7737 45.9788 14.7724 45.9717 14.7725 45.9646V28.472C14.7724 28.4649 14.7737 28.4578 14.7762 28.4512C14.7788 28.4446 14.7826 28.4386 14.7875 28.4336C14.7923 28.4286 14.7981 28.4246 14.8045 28.4219C14.8108 28.4193 14.8177 28.418 14.8245 28.4181H20.5845C20.5914 28.418 20.5982 28.4193 20.6046 28.4219C20.611 28.4246 20.6168 28.4286 20.6216 28.4336C20.6265 28.4386 20.6303 28.4446 20.6329 28.4512C20.6354 28.4578 20.6367 28.4649 20.6365 28.472V45.9646H20.6285ZM47.1705 30.7003L45.1895 43.5063C45.1902 43.5195 45.1878 43.5327 45.1825 43.5447C44.9085 45.8351 43.4985 46.9984 40.9985 46.9984H25.6335C24.8658 46.9929 24.1246 46.7062 23.5413 46.189C22.9581 45.6718 22.5702 44.9574 22.4465 44.1724C22.4377 44.1181 22.4253 44.0645 22.4095 44.0119V29.337L22.7935 29.2448C22.8085 29.2448 22.8155 29.2376 22.8305 29.2376C24.1137 28.8237 25.3262 28.2035 26.4235 27.3998C27.5415 26.6591 28.464 25.6419 29.108 24.4399C29.752 23.2378 30.0972 21.8887 30.1125 20.514V14.7471C31.1544 14.512 32.2437 14.7043 33.1515 15.2837C34.0235 15.9498 34.4675 17.2136 34.4675 19.0368V25.761C34.4683 26.0044 34.562 26.2377 34.7282 26.4098C34.8944 26.582 35.1195 26.679 35.3545 26.6799H44.0125C44.7659 26.6861 45.4923 26.9712 46.0605 27.4837C46.4952 27.8771 46.8254 28.3793 47.0197 28.9423C47.214 29.5054 47.2659 30.1106 47.1705 30.7003Z" fill="white"></path></svg>