<svg width="17" height="17" viewBox="0 0 17 17" fill="none" xmlns="http://www.w3.org/2000/svg"><g id="icon-wrapper"><path id="Union" d="M8.60124 1.34619C4.9279 1.34619 1.93457 4.33952 1.93457 8.01286C1.93457 11.6862 4.9279 14.6795 8.60124 14.6795C12.2746 14.6795 15.2679 11.6862 15.2679 8.01286C15.2679 4.33952 12.2746 1.34619 8.60124 1.34619ZM11.7879 6.47952L8.0079 10.2595C7.91457 10.3529 7.7879 10.4062 7.65457 10.4062C7.52124 10.4062 7.39457 10.3529 7.30124 10.2595L5.41457 8.37286C5.22124 8.17952 5.22124 7.85952 5.41457 7.66619C5.6079 7.47286 5.9279 7.47286 6.12124 7.66619L7.65457 9.19952L11.0812 5.77286C11.2746 5.57952 11.5946 5.57952 11.7879 5.77286C11.9812 5.96619 11.9812 6.27952 11.7879 6.47952Z" fill="#00B578"></path></g></svg>