<svg width="37" height="36" viewBox="0 0 37 36" fill="none" xmlns="http://www.w3.org/2000/svg"><path d="M14.1143 11.9251C13.7558 11.9251 13.376 11.9251 12.9961 11.9671H12.933C6.01431 12.6211 0.333008 19.1884 0.333008 26.5078C0.333008 35.0088 8.22916 36 14.1143 36C19.9573 36 26.7705 35.1142 27.7197 28.1321C28.711 19.9476 22.2142 11.9251 14.1143 11.9251Z" fill="#C92027"></path><path d="M21.4333 3.50162L19.3239 9.90005H8.90393L6.79456 3.50162C6.66766 3.18521 6.73111 2.82651 6.9209 2.5524C7.13184 2.27829 7.44824 2.10938 7.7858 2.10938H11.1396C11.5615 0.885773 12.7428 0 14.1139 0C15.485 0 16.6452 0.885773 17.0882 2.10938H20.442C20.7796 2.10938 21.096 2.27829 21.3069 2.5524C21.4967 2.82651 21.5602 3.18521 21.4333 3.50162Z" fill="#C92027"></path><path d="M17.2568 26.8242C17.2568 28.1953 16.3922 29.3343 15.1686 29.7773V30.7266C15.1686 31.3174 14.7047 31.7812 14.1139 31.7812C13.5231 31.7812 13.0592 31.3174 13.0592 30.7266V29.7985C11.8356 29.3555 10.9287 28.1953 10.9287 26.8242C10.9287 26.2337 11.4138 25.7695 11.9834 25.7695C12.5742 25.7695 13.0381 26.2337 13.0381 26.8242C13.0381 27.3939 13.5231 27.8789 14.0928 27.8789H14.1139C14.7047 27.8578 15.1475 27.3939 15.1475 26.8242C15.1475 26.2337 14.7047 25.7907 14.1139 25.7695H14.0928C12.3633 25.7695 10.9287 24.335 10.9287 22.6055C10.9287 21.2132 11.8359 20.0531 13.0592 19.6312V18.0703C13.0592 17.4795 13.5231 17.0156 14.1139 17.0156C14.7047 17.0156 15.1686 17.4795 15.1686 18.0703V19.6312C16.3922 20.0742 17.2568 21.2344 17.2568 22.6055C17.2568 23.1751 16.7929 23.6602 16.2021 23.6602C15.6325 23.6602 15.1475 23.1751 15.1475 22.6055C15.1475 22.015 14.7047 21.5719 14.1139 21.5508H14.0928C13.5231 21.5508 13.0381 22.015 13.0381 22.6055C13.0381 23.1751 13.5231 23.6602 14.0928 23.6602H14.1139C15.8649 23.6813 17.2568 25.0735 17.2568 26.8242Z" fill="white"></path><path d="M36.333 21.2344C36.333 22.3945 35.3838 23.3438 34.2236 23.3438L28.8799 25.4531L23.6064 23.3438C22.4463 23.3438 21.4971 22.3945 21.4971 21.2344C21.4971 20.0742 22.4463 19.125 23.6064 19.125H34.2236C35.3838 19.125 36.333 20.0742 36.333 21.2344Z" fill="#FFDA2D"></path><path d="M36.333 25.4531C36.333 26.6133 35.3838 27.5625 34.2236 27.5625L28.8799 29.6719L23.6064 27.5625C22.4463 27.5625 21.4971 26.6133 21.4971 25.4531C21.4971 24.293 22.4463 23.3438 23.6064 23.3438H34.2236C35.3838 23.3438 36.333 24.293 36.333 25.4531Z" fill="#FDBF00"></path><path d="M36.333 29.6719C36.333 30.832 35.3838 31.7812 34.2236 31.7812L28.8799 33.8906L23.6064 31.7812C22.4463 31.7812 21.4971 30.832 21.4971 29.6719C21.4971 28.5117 22.4463 27.5625 23.6064 27.5625H34.2236C35.3838 27.5625 36.333 28.5117 36.333 29.6719Z" fill="#FFDA2D"></path><path d="M36.333 33.8906C36.333 35.0508 35.3838 36 34.2236 36H23.6064C22.4463 36 21.4971 35.0508 21.4971 33.8906C21.4971 32.7305 22.4463 31.7812 23.6064 31.7812H34.2236C35.3838 31.7812 36.333 32.7305 36.333 33.8906Z" fill="#FDBF00"></path><path d="M21.4971 10.6172C21.4971 11.7773 20.5479 12.7266 19.3877 12.7266H8.84082C7.68066 12.7266 6.73145 11.7773 6.73145 10.6172C6.73145 9.45703 7.68066 8.50781 8.84082 8.50781H19.3877C20.5479 8.50781 21.4971 9.45703 21.4971 10.6172Z" fill="#AD202B"></path></svg>