<svg width="34" height="34" viewBox="0 0 34 34" fill="none" xmlns="http://www.w3.org/2000/svg"><path d="M20.0717 29.6837C19.8878 29.5485 19.6744 29.4603 19.4497 29.4265C19.225 29.3927 18.9955 29.4144 18.7808 29.4897C16.3632 30.3238 13.7458 30.3504 11.3122 29.5654C8.87865 28.7805 6.75675 27.2253 5.25743 25.1278C3.75811 23.0303 2.96019 20.5006 2.98057 17.9095C3.00095 15.3184 3.83856 12.802 5.37068 10.729V12.6667C5.37068 13.0527 5.52179 13.4229 5.79079 13.6959C6.05978 13.9688 6.42461 14.1222 6.80502 14.1222C7.18543 14.1222 7.55026 13.9688 7.81925 13.6959C8.08824 13.4229 8.23936 13.0527 8.23936 12.6667V7.32993C8.23936 6.94392 8.08824 6.57371 7.81925 6.30075C7.55026 6.0278 7.18543 5.87445 6.80502 5.87445H1.54576C1.16535 5.87445 0.800519 6.0278 0.531527 6.30075C0.262536 6.57371 0.111418 6.94392 0.111418 7.32993C0.111418 7.71595 0.262536 8.08616 0.531527 8.35912C0.800519 8.63207 1.16535 8.78542 1.54576 8.78542H3.2249C1.57589 10.9407 0.535892 13.5107 0.216343 16.2199C-0.103205 18.9292 0.309742 21.6756 1.41093 24.1649C2.51213 26.6542 4.26006 28.7926 6.46742 30.3508C8.67478 31.909 11.2584 32.8285 13.9414 33.0105C14.2748 33.0325 14.6071 33.0435 14.9382 33.0435C16.5523 33.0453 18.1557 32.7775 19.684 32.2507C19.9359 32.167 20.1601 32.014 20.3315 31.8087C20.5029 31.6035 20.615 31.3541 20.6551 31.0881C20.6953 30.8222 20.662 30.5502 20.5591 30.3023C20.4561 30.0543 20.2874 29.8403 20.0717 29.6837Z" fill="#C92027"></path><path d="M32.4033 24.258H30.6642C32.6858 21.7043 33.8141 18.5806 33.882 15.3494C33.9498 12.1183 32.9535 8.95173 31.0408 6.31876C29.128 3.6858 26.4005 1.7265 23.2622 0.731127C20.124 -0.264247 16.742 -0.242757 13.6172 0.792416C13.3563 0.876193 13.1241 1.02919 12.9466 1.23443C12.769 1.43966 12.653 1.68909 12.6114 1.95503C12.5698 2.22097 12.6042 2.493 12.7109 2.74091C12.8176 2.98883 12.9923 3.20293 13.2156 3.35944C13.4061 3.49476 13.6271 3.58306 13.8599 3.61684C14.0926 3.65062 14.3303 3.6289 14.5526 3.55351C17.0566 2.71935 19.7675 2.6928 22.288 3.47775C24.8085 4.2627 27.0062 5.81789 28.5591 7.91545C30.1119 10.013 30.9384 12.5427 30.9173 15.1339C30.8962 17.725 30.0286 20.2414 28.4418 22.3145V20.3767C28.4418 19.9907 28.2853 19.6205 28.0067 19.3475C27.7281 19.0745 27.3502 18.9212 26.9562 18.9212C26.5622 18.9212 26.1843 19.0745 25.9057 19.3475C25.6271 19.6205 25.4706 19.9907 25.4706 20.3767V25.7135C25.4706 26.0996 25.6271 26.4698 25.9057 26.7427C26.1843 27.0157 26.5622 27.169 26.9562 27.169H32.4033C32.7973 27.169 33.1752 27.0157 33.4538 26.7427C33.7324 26.4698 33.8889 26.0996 33.8889 25.7135C33.8889 25.3275 33.7324 24.9573 33.4538 24.6843C33.1752 24.4114 32.7973 24.258 32.4033 24.258Z" fill="#C92027"></path><path d="M22.3239 10.0966H10.208C9.90379 10.0966 9.65723 10.3432 9.65723 10.6474V21.6619C9.65723 21.966 9.90379 22.2126 10.208 22.2126H22.3239C22.628 22.2126 22.8746 21.966 22.8746 21.6619V10.6474C22.8746 10.3432 22.628 10.0966 22.3239 10.0966Z" fill="#7D7D7D"></path><path d="M14.0625 10.0965V14.5023C14.0625 14.6484 14.1205 14.7885 14.2238 14.8917C14.3271 14.995 14.4672 15.053 14.6132 15.053H17.9176C18.0636 15.053 18.2037 14.995 18.307 14.8917C18.4103 14.7885 18.4683 14.6484 18.4683 14.5023V10.0965H14.0625Z" fill="#ECEAEC"></path><path d="M15.1641 19.4587H11.309C11.163 19.4587 11.0229 19.4007 10.9196 19.2974C10.8163 19.1942 10.7583 19.0541 10.7583 18.908C10.7583 18.762 10.8163 18.6219 10.9196 18.5186C11.0229 18.4153 11.163 18.3573 11.309 18.3573H15.1641C15.3102 18.3573 15.4502 18.4153 15.5535 18.5186C15.6568 18.6219 15.7148 18.762 15.7148 18.908C15.7148 19.0541 15.6568 19.1942 15.5535 19.2974C15.4502 19.4007 15.3102 19.4587 15.1641 19.4587Z" fill="#ECEAEC"></path><path d="M13.5119 21.111H11.309C11.163 21.111 11.0229 21.0529 10.9196 20.9497C10.8163 20.8464 10.7583 20.7063 10.7583 20.5602C10.7583 20.4142 10.8163 20.2741 10.9196 20.1708C11.0229 20.0675 11.163 20.0095 11.309 20.0095H13.5119C13.658 20.0095 13.7981 20.0675 13.9013 20.1708C14.0046 20.2741 14.0626 20.4142 14.0626 20.5602C14.0626 20.7063 14.0046 20.8464 13.9013 20.9497C13.7981 21.0529 13.658 21.111 13.5119 21.111Z" fill="#ECEAEC"></path></svg>